<svg xmlns="http://www.w3.org/2000/svg" viewBox="0 0 624.55 647.17"><defs><style>.cls-1{fill:#fff;}.cls-1,.cls-2{stroke:#fff;stroke-miterlimit:10;}.cls-2{fill:none;stroke-width:15px;}</style></defs><title>WuChiKanjiWhite</title><g id="Kanji"><path class="cls-1" d="M293.84,98.57c21.7,23.76,26.12,43.7,20.15,75.94-5.17,27.9-11.11,41.07-17,59.41,0,0-21.32-5.76-28.41,7.23-6.2,11.36,5.68,20.15,16,22.73-1.55,10.33-16,20.15-19.63,24.28s-19.63,15-12.4,26.35c8.49,13.34,31,9.82,42.36,7.75C290.74,326.38,191,395.09,191,395.09l-.52,31.51L331,325.87l55.27,2.07s-97.63,82.65-103.83,87.82-7.23,12.4-.52,18.6,26.86,25.31,28.93,28.93c-6.72,2.07-22.73-1-31-4.65,5.68,10.85,22.73,21.18,42.36,21.7a7.15,7.15,0,0,1,2.58,5.17s-24.18,15.18-18.08,27.38c4.65,9.3,19.11,4.13,22.73,3.1,2.07,11.88-12.4,22.73-31.51,18.08-21.31-5.18-32.54-15-40.29-24.8,2.07,14.46,25.87,45.64,60.44,38.23,28.93-6.2,28.93-27.9,28.93-36.68,9.3-5.68,22.21-18.08,24.28-31.51-12.91,7.23-21.18,12.4-23.76,12.91a31.31,31.31,0,0,0-4.13-9.82,71.45,71.45,0,0,0,12.4-14.46c5.17-8.27.28-22.48-11.36-18.6a122.66,122.66,0,0,0-16,6.72c-4.65-7.75-26.86-30.48-26.86-30.48L433,315.53a2.8,2.8,0,0,0-1.7-4.94l-80.15-3.32,11.88-9.3-1-30.48-34.09,28.41s3.1-12.4,1.55-16.53c-8.27,7.75-25.31,13.95-28.41,9.3-3-4.43,10.33-11.88,12.4-24.28,16.53-2.58,32-7.23,41.84-26.86s9.82-31,8.78-39.26c-10.33,17-24.8,35.64-40.81,37.71,6.46-18.86,17.56-44.94,16.53-68.19S329,116.13,293.84,98.57Z"/><path class="cls-1" d="M243.73,223.07c-17,12.91-25.83,33.58-15,43.39S254.07,268,252,255.61c-2.12-12.74-11.46-7.73-12.91-15C238.57,238,238.05,233.92,243.73,223.07Z"/></g><g id="Circle"><ellipse class="cls-2" cx="312.28" cy="323.59" rx="304.78" ry="316.09"/></g></svg>